<svg width="100%" height="100%" xmlns="http://www.w3.org/2000/svg" viewBox="0 0 400 400">
 <!-- Created with ImageBot - http://www.imagebot.com/ -->
 <defs>
  <linearGradient id="imagebot_194" y2="1">
   <stop offset="0" stop-color="#d6f9ff"/>
   <stop offset="1" stop-color="#9ee8f9"/>
  </linearGradient>
 </defs>
 <g id="imagebot_1">
  <title>Layer 1</title>
  <path d="M203.398,355.722 L203.398,71.7595 L358.475,71.7595 L358.475,355.722 L203.398,355.722 z" id="imagebot_181" stroke-opacity="null" stroke-linecap="round" stroke-linejoin="round" stroke-dasharray="null" stroke-width="3" stroke="#000000" fill="url(#imagebot_194)"/>
  <path transform="translate(-19, -29) matrix(0.446193, 0, 0, 0.446193, 212, 127)" d="M142.155,69.8055 C151.693,43.6599 168.888,21.3447 183.517,-0.801672 C200.534,13.4105 215.236,44.6769 228.027,66.4533 C216.619,91.6416 200.196,114.581 185.402,137.171 C169.453,116.503 155.814,92.8907 142.155,69.8055 L142.155,69.8055 z" id="imagebot_189" stroke-opacity="null" stroke-linecap="round" stroke-linejoin="round" stroke-dasharray="null" stroke-width="0" stroke="#000000" fill="#ff007f"/>
  <path id="imagebot_190" transform="translate(7, 162) matrix(0.446193, 0, 0, 0.446193, 193, 98)" d="M142.155,69.8055 C151.693,43.6599 168.888,21.3447 183.517,-0.801672 C200.534,13.4105 215.236,44.6769 228.027,66.4533 C216.619,91.6416 200.196,114.581 185.402,137.171 C169.453,116.503 155.814,92.8907 142.155,69.8055 L142.155,69.8055 z" stroke-opacity="null" stroke-linecap="round" stroke-linejoin="round" stroke-dasharray="null" stroke-width="0" stroke="#000000" fill="#ff007f"/>
  <path transform="translate(-1, -1) matrix(0.446193, 0, 0, 0.446193, 158, 123)" id="imagebot_191" d="M140.108,24.1775 C143.835,14.0297 150.554,5.3686 156.27,-3.22701 C162.92,2.28912 168.664,14.4245 173.662,22.8765 C169.205,32.6527 162.788,41.5561 157.007,50.3239 C150.775,42.3021 145.446,33.1375 140.108,24.1775 L140.108,24.1775 z" stroke-opacity="null" stroke-linecap="round" stroke-linejoin="round" stroke-dasharray="null" stroke-width="3" stroke="#000000" fill="#ff007f"/>
  <path id="imagebot_192" transform="translate(-1, -1) matrix(0.446193, 0, 0, 0.446193, 158, 123)" d="M140.108,24.1775 C143.835,14.0297 150.554,5.3686 156.27,-3.22701 C162.92,2.28912 168.664,14.4245 173.662,22.8765 C169.205,32.6527 162.788,41.5561 157.007,50.3239 C150.775,42.3021 145.446,33.1375 140.108,24.1775 L140.108,24.1775 z" stroke-opacity="null" stroke-linecap="round" stroke-linejoin="round" stroke-dasharray="null" stroke-width="0" stroke="#000000" fill="#ff007f"/>
  <path transform="translate(-1, -1) matrix(0.446193, 0, 0, 0.446193, 158, 123)" id="imagebot_193" d="M382.156,380.526 C385.883,370.378 392.602,361.717 398.318,353.121 C404.968,358.637 410.712,370.773 415.71,379.225 C411.253,389.001 404.836,397.904 399.055,406.672 C392.823,398.65 387.494,389.486 382.156,380.526 L382.156,380.526 z" stroke-opacity="null" stroke-linecap="round" stroke-linejoin="round" stroke-dasharray="null" stroke-width="0" stroke="#000000" fill="#ff007f"/>
  <text transform="translate(-111, -220) matrix(2.16133, 0, 0, 1.64816, -148.143, 171.192)" font-weight="bold" xml:space="preserve" text-anchor="middle" font-family="serif" font-size="24" id="imagebot_197" y="99" x="224" stroke-opacity="null" stroke-linecap="round" stroke-linejoin="round" stroke-dasharray="null" stroke-width="0" stroke="#000000" fill="#ff007f">7</text>
  <text id="imagebot_198" transform="translate(-111, -220) matrix(2.16133, 0, 0, 1.64816, -148.143, 171.192)" font-weight="bold" xml:space="preserve" text-anchor="middle" font-family="serif" font-size="24" y="99" x="224" stroke-opacity="null" stroke-linecap="round" stroke-linejoin="round" stroke-dasharray="null" stroke-width="0" stroke="#000000" fill="#ff007f">7</text>
  <text id="imagebot_199" transform="translate(-111, -220) matrix(2.16133, 0, 0, 1.64816, -148.143, 171.192)" font-weight="bold" xml:space="preserve" text-anchor="middle" font-family="serif" font-size="24" y="99" x="224" stroke-opacity="null" stroke-linecap="round" stroke-linejoin="round" stroke-dasharray="null" stroke-width="0" stroke="#000000" fill="#ff007f">7</text>
  <text id="imagebot_200" transform="rotate(180, 334.995, 322.639) translate(104, 133) matrix(2.16133, 0, 0, 1.64816, -253.143, 40.192)" font-weight="bold" xml:space="preserve" text-anchor="middle" font-family="serif" font-size="24" y="99" x="224" stroke-opacity="null" stroke-linecap="round" stroke-linejoin="round" stroke-dasharray="null" stroke-width="0" stroke="#000000" fill="#ff007f">7</text>
  <path id="imagebot_201" transform="translate(4, 7) matrix(0.446193, 0, 0, 0.446193, 195, 173)" d="M142.155,69.8055 C151.693,43.6599 168.888,21.3447 183.517,-0.801672 C200.534,13.4105 215.236,44.6769 228.027,66.4533 C216.619,91.6416 200.196,114.581 185.402,137.171 C169.453,116.503 155.814,92.8907 142.155,69.8055 L142.155,69.8055 z" stroke-opacity="null" stroke-linecap="round" stroke-linejoin="round" stroke-dasharray="null" stroke-width="0" stroke="#000000" fill="#ff007f"/>
  <path id="imagebot_202" transform="translate(-1, 8) matrix(0.446193, 0, 0, 0.446193, 168, 136)" d="M142.155,69.8055 C151.693,43.6599 168.888,21.3447 183.517,-0.801672 C200.534,13.4105 215.236,44.6769 228.027,66.4533 C216.619,91.6416 200.196,114.581 185.402,137.171 C169.453,116.503 155.814,92.8907 142.155,69.8055 L142.155,69.8055 z" stroke-opacity="null" stroke-linecap="round" stroke-linejoin="round" stroke-dasharray="null" stroke-width="0" stroke="#000000" fill="#ff007f"/>
  <path id="imagebot_203" transform="translate(0, 6) matrix(0.446193, 0, 0, 0.446193, 167, 210)" d="M142.155,69.8055 C151.693,43.6599 168.888,21.3447 183.517,-0.801672 C200.534,13.4105 215.236,44.6769 228.027,66.4533 C216.619,91.6416 200.196,114.581 185.402,137.171 C169.453,116.503 155.814,92.8907 142.155,69.8055 L142.155,69.8055 z" stroke-opacity="null" stroke-linecap="round" stroke-linejoin="round" stroke-dasharray="null" stroke-width="0" stroke="#000000" fill="#ff007f"/>
  <path id="imagebot_204" transform="translate(2) matrix(0.446193, 0, 0, 0.446193, 229, 140)" d="M142.155,69.8055 C151.693,43.6599 168.888,21.3447 183.517,-0.801672 C200.534,13.4105 215.236,44.6769 228.027,66.4533 C216.619,91.6416 200.196,114.581 185.402,137.171 C169.453,116.503 155.814,92.8907 142.155,69.8055 L142.155,69.8055 z" stroke-opacity="null" stroke-linecap="round" stroke-linejoin="round" stroke-dasharray="null" stroke-width="0" stroke="#000000" fill="#ff007f"/>
  <path id="imagebot_205" transform="translate(42, 117) matrix(0.446193, 0, 0, 0.446193, 193, 98)" d="M142.155,69.8055 C151.693,43.6599 168.888,21.3447 183.517,-0.801672 C200.534,13.4105 215.236,44.6769 228.027,66.4533 C216.619,91.6416 200.196,114.581 185.402,137.171 C169.453,116.503 155.814,92.8907 142.155,69.8055 L142.155,69.8055 z" stroke-opacity="null" stroke-linecap="round" stroke-linejoin="round" stroke-dasharray="null" stroke-width="0" stroke="#000000" fill="#ff007f"/>
 </g>
</svg>