<svg width="100%" height="100%" xmlns="http://www.w3.org/2000/svg" viewBox="0 0 400 400">
 <!-- Created with ImageBot - http://www.imagebot.com/ -->
 <defs>
  <linearGradient id="imagebot_194" y2="1">
   <stop offset="0" stop-color="#d6f9ff"/>
   <stop offset="1" stop-color="#9ee8f9"/>
  </linearGradient>
 </defs>
 <g id="imagebot_1">
  <title>Layer 1</title>
  <path d="M203.398,355.722 L203.398,71.7595 L358.475,71.7595 L358.475,355.722 L203.398,355.722 z" id="imagebot_181" stroke-opacity="null" stroke-linecap="round" stroke-linejoin="round" stroke-dasharray="null" stroke-width="3" stroke="#000000" fill="url(#imagebot_194)"/>
  <path transform="translate(-1, -1) matrix(0.446193, 0, 0, 0.446193, 158, 123)" id="imagebot_191" d="M140.108,24.1775 C143.835,14.0297 150.554,5.3686 156.27,-3.22701 C162.92,2.28912 168.664,14.4245 173.662,22.8765 C169.205,32.6527 162.788,41.5561 157.007,50.3239 C150.775,42.3021 145.446,33.1375 140.108,24.1775 L140.108,24.1775 z" stroke-opacity="null" stroke-linecap="round" stroke-linejoin="round" stroke-dasharray="null" stroke-width="3" stroke="#000000" fill="#ff007f"/>
  <path id="imagebot_192" transform="translate(-1, -1) matrix(0.446193, 0, 0, 0.446193, 158, 123)" d="M140.108,24.1775 C143.835,14.0297 150.554,5.3686 156.27,-3.22701 C162.92,2.28912 168.664,14.4245 173.662,22.8765 C169.205,32.6527 162.788,41.5561 157.007,50.3239 C150.775,42.3021 145.446,33.1375 140.108,24.1775 L140.108,24.1775 z" stroke-opacity="null" stroke-linecap="round" stroke-linejoin="round" stroke-dasharray="null" stroke-width="0" stroke="#000000" fill="#ff007f"/>
  <path transform="translate(-1, -1) matrix(0.446193, 0, 0, 0.446193, 158, 123)" id="imagebot_193" d="M382.156,380.526 C385.883,370.378 392.602,361.717 398.318,353.121 C404.968,358.637 410.712,370.773 415.71,379.225 C411.253,389.001 404.836,397.904 399.055,406.672 C392.823,398.65 387.494,389.486 382.156,380.526 L382.156,380.526 z" stroke-opacity="null" stroke-linecap="round" stroke-linejoin="round" stroke-dasharray="null" stroke-width="0" stroke="#000000" fill="#ff007f"/>
  <path transform="translate(-10, -3) matrix(0.446193, 0, 0, 0.446193, 200, 173)" id="imagebot_201" d="M146.638,97.3422 C157.13,48.5504 176.044,6.90674 192.135,-34.4219 C210.853,-7.89974 227.025,50.4483 241.094,91.0865 C228.546,138.092 210.481,180.9 194.208,223.057 C176.665,184.487 161.663,140.423 146.638,97.3422 L146.638,97.3422 z" stroke-opacity="null" stroke-linecap="round" stroke-linejoin="round" stroke-dasharray="null" stroke-width="0" stroke="#000000" fill="#ff007f"/>
  <text transform="translate(132, 6) matrix(1.57997, 0, 0, 1.6, -267.164, -67.2)" font-weight="bold" xml:space="preserve" text-anchor="middle" font-family="serif" font-size="24" id="imagebot_206" y="111" x="229" stroke-opacity="null" stroke-linecap="round" stroke-linejoin="round" stroke-dasharray="null" stroke-width="0" stroke="#000000" fill="#ff007f">A</text>
  <text id="imagebot_207" transform="rotate(180, 331.583, 322.318) translate(100, 54) matrix(1.57997, 0, 0, 1.6, -130.164, 103.8)" font-weight="bold" xml:space="preserve" text-anchor="middle" font-family="serif" font-size="24" y="111" x="229" stroke-opacity="null" stroke-linecap="round" stroke-linejoin="round" stroke-dasharray="null" stroke-width="0" stroke="#000000" fill="#ff007f">A</text>
 </g>
</svg>