<svg width="100%" height="100%" xmlns="http://www.w3.org/2000/svg"  viewBox="0 0 145 145">
 <!-- Created with ImageBot - http://www.imagebot.com/ -->
 <g id="imagebot_1">
  <title>Layer 1</title>
  <path transform="matrix(4.58658, 0, 0, 4.58658, 0, 0)" d="M16,1.466C7.973,1.466 1.466,7.973 1.466,16C1.466,24.027 7.973,30.534 16,30.534C24.027,30.534 30.534,24.027 30.534,16C30.534,7.973 24.027,1.466 16,1.466zM17.255,23.88L17.255,25.927L15.297,25.927L15.297,23.903C12.084,23.463 10.676,20.823 10.676,20.823L12.678,19.15C12.678,19.15 13.954,21.373 16.264,21.373C17.54,21.373 18.508,20.69 18.508,19.524C18.508,16.795 11.159,17.126 11.159,12.065C11.159,9.865 12.897,8.28 15.296,7.906L15.296,5.859L17.254,5.859L17.254,7.905C18.926,8.125 20.906,9.005 20.906,10.898L20.906,12.35L18.31,12.35L18.31,11.646C18.31,10.92 17.385,10.436 16.351,10.436C15.031,10.436 14.063,11.096 14.063,12.02C14.063,14.814 21.412,14.132 21.412,19.435C21.413,21.614 19.785,23.506 17.255,23.88z" id="imagebot_2" stroke-linecap="round" stroke-linejoin="round" stroke-width="0.5" stroke="#000000" fill="#ff007f"/>
 </g>
</svg>