<svg width="100%" height="100%" xmlns="http://www.w3.org/2000/svg" viewBox="0 0 800 800">
 <!-- Created with ImageBot - http://www.imagebot.com/ -->

 <g id="imagebot_1">
  <title>Layer 1</title>
  <path d="M6.59131,394.808 L6.59131,15.7307 L596.883,15.7307 L596.883,394.808 L6.59131,394.808 z" id="imagebot_30" stroke-linecap="round" stroke-linejoin="round" stroke-width="0" stroke="#000000" fill="#007f3f"/>
  <path transform="translate(2, -33) matrix(0.666667, 0, 0, 0.666667, 0, 0)" d="M5.39788,160.366 L5.39788,74.0448 L892.291,74.0448 L892.291,160.366 L5.39788,160.366 z" id="imagebot_32" stroke-opacity="null" stroke-linecap="round" stroke-linejoin="round" stroke-dasharray="null" stroke-width="0" stroke="#000000" fill="#00ff7f"/>
  <path transform="translate(6, 5) matrix(0.666667, 0, 0, 0.666667, 0, 0)" d="M-0.771209,588.389 L-0.771209,80.3704 L99.3188,80.3704 L99.3188,588.389 L-0.771209,588.389 z" id="imagebot_33" stroke-opacity="null" stroke-linecap="round" stroke-linejoin="round" stroke-dasharray="null" stroke-width="0" stroke="#000000" fill="#00ff7f"/>
  <path transform="translate(2, 246) matrix(0.666667, 0, 0, 0.666667, 0, 0)" d="M5.4197,228.184 L5.4197,148.939 L895.226,148.939 L895.226,228.184 L5.4197,228.184 z" id="imagebot_34" stroke-opacity="null" stroke-linecap="round" stroke-linejoin="round" stroke-dasharray="null" stroke-width="0" stroke="#000000" fill="#00ff7f"/>
  <path transform="translate(-2, -2) matrix(0.666667, 0, 0, 0.666667, 396, -32)" d="M213.614,357.078 L213.614,75.4741 L303.662,75.4741 L303.662,357.078 L213.614,357.078 z" id="imagebot_35" stroke-opacity="null" stroke-linecap="round" stroke-linejoin="round" stroke-dasharray="null" stroke-width="0" stroke="#000000" fill="#00ff7f"/>
  <path transform="translate(0, 32) matrix(0.666667, 0, 0, 0.666667, 6, 104)" d="M-0.645735,127.363 L-0.645735,102 L886.392,102 L886.392,127.363 L-0.645735,127.363 z" id="imagebot_37" stroke-opacity="null" stroke-linecap="round" stroke-linejoin="round" stroke-dasharray="null" stroke-width="0" stroke="#000000" fill="#7fff00"/>
 </g>
</svg>